<svg width="20" height="17" viewBox="0 0 20 17" fill="none" xmlns="http://www.w3.org/2000/svg">
<path fill-rule="evenodd" clip-rule="evenodd" d="M5.3 6.825C6 7.525 6.9 7.875 8 7.875C9.1 7.875 10 7.525 10.7 6.825C11.4 6.125 11.75 5.225 11.75 4.125C11.75 3.025 11.4 2.125 10.7 1.425C10 0.725 9.1 0.375 8 0.375C6.9 0.375 6 0.725 5.3 1.425C4.6 2.125 4.25 3.025 4.25 4.125C4.25 5.225 4.6 6.125 5.3 6.825ZM0 13.55V15.9H8.95C8.78333 15.6833 8.64167 15.4542 8.525 15.2125C8.40833 14.9708 8.30833 14.7 8.225 14.4H1.5V13.55C1.5 13.3 1.56667 13.0542 1.7 12.8125C1.83333 12.5708 2.03333 12.3833 2.3 12.25C3.28333 11.7667 4.2375 11.4208 5.1625 11.2125C6.0875 11.0042 7.03333 10.9 8 10.9H8.225C8.25833 10.5833 8.3 10.3125 8.35 10.0875C8.4 9.8625 8.475 9.63333 8.575 9.4H8C7.05 9.4 6.0625 9.51667 5.0375 9.75C4.0125 9.98333 2.9 10.3667 1.7 10.9C1.15 11.15 0.729167 11.5083 0.4375 11.975C0.145833 12.4417 0 12.9667 0 13.55ZM9.6125 5.7375C9.1875 6.1625 8.65 6.375 8 6.375C7.35 6.375 6.8125 6.1625 6.3875 5.7375C5.9625 5.3125 5.75 4.775 5.75 4.125C5.75 3.475 5.9625 2.9375 6.3875 2.5125C6.8125 2.0875 7.35 1.875 8 1.875C8.65 1.875 9.1875 2.0875 9.6125 2.5125C10.0375 2.9375 10.25 3.475 10.25 4.125C10.25 4.775 10.0375 5.3125 9.6125 5.7375Z" fill="#3E414D"/>
<path fill-rule="evenodd" clip-rule="evenodd" d="M14.675 17L14.425 15.35C14.1417 15.2667 13.8542 15.1458 13.5625 14.9875C13.2708 14.8292 13.025 14.65 12.825 14.45L11.45 14.75L10.825 13.7L12 12.6C11.9667 12.45 11.95 12.2417 11.95 11.975C11.95 11.7083 11.9667 11.5 12 11.35L10.825 10.25L11.45 9.2L12.825 9.5C13.025 9.3 13.2708 9.12083 13.5625 8.9625C13.8542 8.80417 14.1417 8.68333 14.425 8.6L14.675 6.95H16.025L16.275 8.6C16.5583 8.68333 16.8458 8.80417 17.1375 8.9625C17.4292 9.12083 17.675 9.3 17.875 9.5L19.25 9.2L19.875 10.25L18.7 11.35C18.7333 11.5 18.75 11.7083 18.75 11.975C18.75 12.2417 18.7333 12.45 18.7 12.6L19.875 13.7L19.25 14.75L17.875 14.45C17.675 14.65 17.4292 14.8292 17.1375 14.9875C16.8458 15.1458 16.5583 15.2667 16.275 15.35L16.025 17H14.675ZM16.8 13.425C16.4333 13.7917 15.95 13.975 15.35 13.975C14.75 13.975 14.2667 13.7917 13.9 13.425C13.5333 13.0583 13.35 12.575 13.35 11.975C13.35 11.375 13.5333 10.8917 13.9 10.525C14.2667 10.1583 14.75 9.975 15.35 9.975C15.95 9.975 16.4333 10.1583 16.8 10.525C17.1667 10.8917 17.35 11.375 17.35 11.975C17.35 12.575 17.1667 13.0583 16.8 13.425Z" fill="#224DFF"/>
</svg>
