<svg width="36" height="36" viewBox="0 0 36 36" fill="none" xmlns="http://www.w3.org/2000/svg">
<rect x="0.5" y="0.5" width="35" height="35" rx="5.5" fill="white"/>
<path d="M18 24.6666C17.7222 24.6666 17.4861 24.5694 17.2917 24.3749C17.0972 24.1805 17 23.9444 17 23.6666C17 23.3888 17.0972 23.1527 17.2917 22.9583C17.4861 22.7638 17.7222 22.6666 18 22.6666C18.2778 22.6666 18.5139 22.7638 18.7083 22.9583C18.9028 23.1527 19 23.3888 19 23.6666C19 23.9444 18.9028 24.1805 18.7083 24.3749C18.5139 24.5694 18.2778 24.6666 18 24.6666ZM18 18.9999C17.7222 18.9999 17.4861 18.9027 17.2917 18.7083C17.0972 18.5138 17 18.2777 17 17.9999C17 17.7221 17.0972 17.486 17.2917 17.2916C17.4861 17.0971 17.7222 16.9999 18 16.9999C18.2778 16.9999 18.5139 17.0971 18.7083 17.2916C18.9028 17.486 19 17.7221 19 17.9999C19 18.2777 18.9028 18.5138 18.7083 18.7083C18.5139 18.9027 18.2778 18.9999 18 18.9999ZM18 13.3333C17.7222 13.3333 17.4861 13.236 17.2917 13.0416C17.0972 12.8471 17 12.611 17 12.3333C17 12.0555 17.0972 11.8194 17.2917 11.6249C17.4861 11.4305 17.7222 11.3333 18 11.3333C18.2778 11.3333 18.5139 11.4305 18.7083 11.6249C18.9028 11.8194 19 12.0555 19 12.3333C19 12.611 18.9028 12.8471 18.7083 13.0416C18.5139 13.236 18.2778 13.3333 18 13.3333Z" fill="#696A6E"/>
<rect x="0.5" y="0.5" width="35" height="35" rx="5.5" stroke="#E5E7ED"/>
</svg>
