<svg width="17" height="16" viewBox="0 0 17 16" fill="none" xmlns="http://www.w3.org/2000/svg">
<path d="M16.4998 8.18387C16.4998 7.64007 16.4548 7.09333 16.3589 6.55835H8.66101V9.6389H13.0692C12.8863 10.6324 12.2985 11.5113 11.4379 12.0698V14.0687H14.0678C15.6122 12.6754 16.4998 10.6177 16.4998 8.18387Z" fill="#4285F4"/>
<path d="M8.66084 16C10.8619 16 12.7182 15.2916 14.0706 14.0688L11.4407 12.07C10.709 12.5579 9.76439 12.8342 8.66383 12.8342C6.5347 12.8342 4.72943 11.4262 4.0817 9.5332H1.3678V11.5938C2.75324 14.2951 5.57509 16 8.66084 16Z" fill="#34A853"/>
<path d="M4.07905 9.53314C3.73718 8.5396 3.73718 7.46376 4.07905 6.47023V4.40967H1.36815C0.210618 6.67011 0.210618 9.33326 1.36815 11.5937L4.07905 9.53314Z" fill="#FBBC04"/>
<path d="M8.66084 3.16633C9.82436 3.1487 10.9489 3.57786 11.7916 4.36563L14.1216 2.08167C12.6462 0.723645 10.688 -0.0229766 8.66084 0.000539093C5.57509 0.000539093 2.75324 1.70542 1.3678 4.40972L4.0787 6.47028C4.72343 4.57433 6.5317 3.16633 8.66084 3.16633Z" fill="#EA4335"/>
</svg>
