<svg width="18" height="18" viewBox="0 0 18 18" fill="none" xmlns="http://www.w3.org/2000/svg">
<path d="M4 8.75V7.25H13.75V8.75H4Z" fill="#224DFF"/>
<path fill-rule="evenodd" clip-rule="evenodd" d="M1.5 18C1.08333 18 0.729167 17.8542 0.4375 17.5625C0.145833 17.2708 0 16.9167 0 16.5V1.5C0 1.08333 0.145833 0.729167 0.4375 0.4375C0.729167 0.145833 1.08333 0 1.5 0H16.5C16.9167 0 17.2708 0.145833 17.5625 0.4375C17.8542 0.729167 18 1.08333 18 1.5V16.5C18 16.9167 17.8542 17.2708 17.5625 17.5625C17.2708 17.8542 16.9167 18 16.5 18H1.5ZM1.5 16.5H16.5V3.5H1.5V16.5Z" fill="#3E414D"/>
<path d="M4 12.75V11.25H9.75V12.75H4Z" fill="#224DFF"/>
</svg>
